<?xml version="1.0" encoding="utf-8"?>
<!-- Generator: Adobe Illustrator 19.0.0, SVG Export Plug-In . SVG Version: 6.00 Build 0)  -->
<svg version="1.1" id="Warstwa_1" xmlns="http://www.w3.org/2000/svg" xmlns:xlink="http://www.w3.org/1999/xlink" x="0px" y="0px"
	 viewBox="0 0 355.5 345.6" style="enable-background:new 0 0 355.5 345.6;" xml:space="preserve">
<style type="text/css">
	.st0{fill:none;stroke:#E6E6E6;stroke-width:14;stroke-linecap:round;stroke-linejoin:round;stroke-miterlimit:22.9256;}
</style>
<g>
	<path class="st0" d="M189.7,271.5L74.1,155.9l-21.9,21.9l20.5,20.5c9.8,9.8,14.6,19.2-0.4,41.5c-15,22.2-38.2,16.3-53.9,32
		c-15.3,15.3-15.3,40.1,0,55.4c15.3,15.3,40.1,15.3,55.4,0c4.5-4.5,7.7-9.8,9.5-15.5c8.6-26.5,2.1-25.3,22.5-38.4
		c20.4-13.2,31.7-10.2,41.5-0.4l20.5,20.5L189.7,271.5L189.7,271.5z M90.6,137.5L208.1,255 M102.3,114.2l129.1,129.1 M231.4,229.6
		l97-85c15.7-13.7-30.3-58.3-38.7-68.6c-37.4-45.7-86.9-96.2-98-51.9l-76.8,89 M191.6,24.1c5.2,5.8,21.8,21.7,13.4,28
		c-23.2,14.3-30.3,26.6-22,37c6,7.5,21.3,14.1,30.4,1.9c12.1-16.1,57-32.4,40.8-0.2c-7.1,14.1,9.2,24.2,23,13.7
		c8.9-6.8,25.9,26.2,36.7,48.9"/>
	<path class="st0" d="M325.3,188.6c-13.1,36.5-26.2,50-26.2,61c0,11,11,19.9,24.7,19.9c13.6,0,24.7-8.9,24.7-19.9
		C348.5,238.7,323.7,223,325.3,188.6L325.3,188.6z"/>
</g>
</svg>
