<?xml version="1.0" encoding="utf-8"?>
<!-- Generator: Adobe Illustrator 19.0.0, SVG Export Plug-In . SVG Version: 6.00 Build 0)  -->
<svg version="1.1" id="Warstwa_1" xmlns="http://www.w3.org/2000/svg" xmlns:xlink="http://www.w3.org/1999/xlink" x="0px" y="0px"
	 viewBox="0 0 338 341.9" style="enable-background:new 0 0 338 341.9;" xml:space="preserve">
<style type="text/css">
	.st0{fill:none;stroke:#E6E6E6;stroke-width:14;stroke-linecap:round;stroke-linejoin:round;stroke-miterlimit:22.9256;}
</style>
<g>
	<path class="st0" d="M41.5,7h255c19,0,34.5,15.5,34.5,34.5v175c0,19-15.5,34.5-34.5,34.5H212l-43,84l-43-84H41.5
		c-19,0-34.5-15.5-34.5-34.5v-175C7,22.5,22.5,7,41.5,7L41.5,7z M117.1,96.2v108.7h105.2v-64.8 M150.3,131.1h38.9V170h-38.9V131.1
		L150.3,131.1z M89.5,122.7l0.7-0.6l-0.7-0.8l78.8-70.4l0.7,0.6l0.7-0.6l78.8,70.4l-0.7,0.8l0.7,0.6"/>
</g>
</svg>
