<?xml version="1.0" encoding="utf-8"?>
<!-- Generator: Adobe Illustrator 19.0.0, SVG Export Plug-In . SVG Version: 6.00 Build 0)  -->
<svg version="1.1" id="Warstwa_1" xmlns="http://www.w3.org/2000/svg" xmlns:xlink="http://www.w3.org/1999/xlink" x="0px" y="0px"
	 viewBox="0 0 334.9 363.6" style="enable-background:new 0 0 334.9 363.6;" xml:space="preserve">
<style type="text/css">
	.st0{fill:none;stroke:#E6E6E6;stroke-width:14;stroke-linecap:round;stroke-linejoin:round;stroke-miterlimit:22.9256;}
</style>
<g>
	<path class="st0" d="M233.3,117.7c-0.1,53.1-29.5,96.1-65.8,96.1c-36.3,0-65.7-43-65.8-96.1 M258.1,97.4l0,0.2
		c0,0.4-0.1,0.7-0.3,1.1c-3.5,7.5-40,12.3-85.7,12.6l0,0c-3.1,0-6.2,0-9.3,0l0,0c-45.7-0.3-82.2-5.2-85.7-12.6
		c-0.2-0.4-0.3-0.7-0.3-1.1l0-0.2C76.6,89.2,83.6,83.6,95,84V73.6c0-88.9,145-88.6,145,0V84C251.3,83.6,258.3,89.2,258.1,97.4
		L258.1,97.4z M42.3,246.8l19.5-8.4l4.2,118.3H7l11.5-86c0.9-6.5,3.6-12.5,7.7-16.8C30.2,249.5,36.3,249.4,42.3,246.8L42.3,246.8z
		 M272,238.4l20.6,8.4c12.1,5,22.2,11,23.9,23.9l11.5,86h-60.2L272,238.4L272,238.4z M68.4,235.2l34.3-18l5.1,91h119.2l5.1-91
		l34.3,18 M265.4,356.6H69.5 M153.6,8.7v48.5 M181.3,8.7v48.5"/>
</g>
</svg>
