<?xml version="1.0" encoding="utf-8"?>
<!-- Generator: Adobe Illustrator 19.0.0, SVG Export Plug-In . SVG Version: 6.00 Build 0)  -->
<svg version="1.1" id="Warstwa_1" xmlns="http://www.w3.org/2000/svg" xmlns:xlink="http://www.w3.org/1999/xlink" x="0px" y="0px"
	 viewBox="888 8 2736.4 545" style="enable-background:new 888 8 2736.4 545;" xml:space="preserve">
<style type="text/css">
	.st0{fill:none;stroke:#D82F36;stroke-width:50;stroke-miterlimit:10;}
	.st1{fill:#FFFFFF;}
</style>
<path id="XMLID_19_" class="st0" d="M1410.7,530.5h-500v-500h500V530.5z M910.5,363.2c0,41.4,33.6,75,75,75s75-33.6,75-75
	 M1060.6,363.7V103 M1065.4,117.6L1292.9,435 M1297.6,449.5v-408"/>
<g id="XMLID_10_">
	<path id="XMLID_11_" class="st1" d="M1762,155.9c13.9,0,26.9,2.6,39,7.8s22.7,12.3,31.8,21.4c9.1,9.1,16.2,19.7,21.4,31.8
		c5.2,12.1,7.8,25.1,7.8,39v152h-51.2v-152c0-6.7-1.3-13-3.8-19s-6-11.2-10.4-15.6s-9.6-7.9-15.6-10.4s-12.3-3.8-19-3.8
		s-13,1.3-19,3.8s-11.2,6-15.6,10.4s-7.9,9.6-10.4,15.6s-3.8,12.3-3.8,19v152H1662v-152c0-13.9,2.6-26.9,7.8-39
		c5.2-12.1,12.3-22.7,21.4-31.8c9.1-9.1,19.7-16.2,31.8-21.4S1748.1,155.9,1762,155.9z"/>
	<path id="XMLID_13_" class="st1" d="M2002,155.9c13.9,0,26.9,2.6,39,7.8c12.1,5.2,22.7,12.3,31.8,21.4c9.1,9.1,16.2,19.7,21.4,31.8
		c5.2,12.1,7.8,25.1,7.8,39v152h-51.2v-50.4h-97.6v50.4H1902v-152c0-13.9,2.6-26.9,7.8-39c5.2-12.1,12.3-22.7,21.4-31.8
		s19.7-16.2,31.8-21.4C1975.1,158.5,1988.1,155.9,2002,155.9z M2050.8,255.9c0-6.7-1.3-13-3.8-19s-6-11.2-10.4-15.6
		s-9.6-7.9-15.6-10.4s-12.3-3.8-19-3.8s-13,1.3-19,3.8s-11.2,6-15.6,10.4s-7.9,9.6-10.4,15.6s-3.8,12.3-3.8,19v50.4h97.6
		L2050.8,255.9L2050.8,255.9z"/>
	<path id="XMLID_21_" class="st1" d="M2358,155.9h51.2v173.2c0,10.9-2.1,21.2-6.4,30.8c-4.3,9.6-10,17.9-17.2,25
		c-7.2,7.1-15.6,12.7-25.2,16.8c-9.6,4.1-19.9,6.2-30.8,6.2c-10.4,0-20.2-1.9-29.4-5.6s-17.4-8.9-24.6-15.6
		c-6.9,6.7-15.1,11.9-24.4,15.6s-19.2,5.6-29.6,5.6c-10.9,0-21.2-2.1-30.8-6.2c-9.6-4.1-18-9.7-25.2-16.8
		c-7.2-7.1-12.9-15.4-17.2-25c-4.3-9.6-6.4-19.9-6.4-30.8V155.9h51.2v176.4c1.1,6.9,4.3,12.8,9.6,17.6c5.3,4.8,11.6,7.2,18.8,7.2
		c7.5,0,13.9-2.5,19.2-7.4c5.3-4.9,8.4-11,9.2-18.2V155.9h51.2v172.8c0.3,7.7,3.1,14.4,8.6,20s12.2,8.4,20.2,8.4
		c6.9,0,13-2.3,18.2-6.8s8.5-10.3,9.8-17.2L2358,155.9L2358,155.9z"/>
	<path id="XMLID_23_" class="st1" d="M2660.8,230.7c0,10.1-1.8,19.5-5.4,28.2c-3.6,8.7-8.5,16.3-14.6,23c6.1,6.7,11,14.3,14.6,23
		c3.6,8.7,5.4,17.9,5.4,27.8v75.2h-50.4v-75.2c0-7.2-2.5-13.3-7.6-18.4s-11.2-7.7-18.4-8h-62.8v-49.2h65.2
		c6.7-0.5,12.3-3.3,16.8-8.4c4.5-5.1,6.8-11.1,6.8-18c0-6.7-2.2-12.5-6.6-17.4s-9.8-7.9-16.2-9h-87.2v203.6h-51.2v-252h137.6
		c10.1,0,19.7,2,28.8,6s16.9,9.4,23.6,16.2s11.9,14.7,15.8,23.6C2658.9,210.6,2660.8,220.3,2660.8,230.7L2660.8,230.7z"/>
	<path id="XMLID_25_" class="st1" d="M2826.8,155.9c17.3,0,33.7,3.3,49,10s28.7,15.7,40,27s20.3,24.7,27,40s10,31.7,10,49
		s-3.3,33.7-10,49s-15.7,28.7-27,40.2s-24.7,20.5-40,27s-31.7,9.8-49,9.8s-33.7-3.3-49-9.8s-28.7-15.5-40.2-27s-20.5-24.9-27-40.2
		c-6.5-15.3-9.8-31.7-9.8-49s3.3-33.7,9.8-49s15.5-28.7,27-40s24.9-20.3,40.2-27S2809.5,155.9,2826.8,155.9z M2827.2,357.1
		c10.4,0,20.1-2,29.2-6c9.1-4,17-9.4,23.8-16.2c6.8-6.8,12.2-14.7,16.2-23.8c4-9.1,6-18.8,6-29.2c0-10.4-2-20.1-6-29.2
		c-4-9.1-9.4-17-16.2-23.8c-6.8-6.8-14.7-12.2-23.8-16.2c-9.1-4-18.8-6-29.2-6c-10.4,0-20.1,2-29.2,6c-9.1,4-17,9.4-23.8,16.2
		c-6.8,6.8-12.1,14.7-16,23.8c-3.9,9.1-5.8,18.8-5.8,29.2s1.9,20.1,5.8,29.2c3.9,9.1,9.2,17,16,23.8c6.8,6.8,14.7,12.2,23.8,16.2
		S2816.8,357.1,2827.2,357.1z"/>
	<path id="XMLID_28_" class="st1" d="M3119.2,357.1c16.5,0,31.1-4.7,43.8-14.2s21.7-21.4,27-35.8l47.6,16.8
		c-4.3,12.3-10.3,23.5-18,33.8s-16.8,19.1-27.2,26.6s-21.9,13.3-34.4,17.4s-25.6,6.2-39.2,6.2c-17.3,0-33.7-3.3-49-9.8
		s-28.7-15.5-40.2-27s-20.5-24.9-27-40.2c-6.5-15.3-9.8-31.7-9.8-49s3.3-33.7,9.8-49s15.5-28.7,27-40s24.9-20.3,40.2-27
		s31.7-10,49-10c13.6,0,26.5,2,38.6,6s23.3,9.6,33.6,16.8s19.3,15.7,27,25.6c7.7,9.9,13.9,20.8,18.4,32.8l-47.2,17.2
		c-5.3-14.1-14.3-25.6-27-34.4s-27-13.2-43-13.2c-10.4,0-20.1,2-29.2,6c-9.1,4-17,9.4-23.8,16.2s-12.1,14.7-16,23.8
		c-3.9,9.1-5.8,18.8-5.8,29.2s1.9,20.1,5.8,29.2c3.9,9.1,9.2,17,16,23.8s14.7,12.2,23.8,16.2S3108.8,357.1,3119.2,357.1
		L3119.2,357.1z"/>
	<path id="XMLID_30_" class="st1" d="M3459.8,228.5c-12.1,21.7-28.3,39.4-48.6,53c10.1,6.9,19.3,14.9,27.6,24s15.3,19,21,29.8
		s10.2,22.3,13.4,34.6c3.2,12.3,4.8,24.9,4.8,38h-50.8c0-13.3-2.5-25.9-7.4-37.8s-11.7-22.3-20.2-31.4s-18.6-16.4-30.2-22
		c-11.6-5.6-23.9-8.8-37-9.6h-3.6v100.8h-51.2v-252h51.2v99.6h3.6c13.1-0.8,25.4-3.9,37-9.4s21.7-12.7,30.2-21.6
		c8.5-8.9,15.3-19.3,20.2-31s7.4-24.3,7.4-37.6h50.8C3478,182.6,3471.9,206.8,3459.8,228.5L3459.8,228.5z"/>
	<path id="XMLID_32_" class="st1" d="M3624.4,207.1h-27.6v149.6h27.6v51.2H3518v-51.2h27.6V207.1H3518v-51.2h106.4V207.1z"/>
</g>
</svg>
