<svg version="1.0" id="Warstwa_1" xmlns="http://www.w3.org/2000/svg" x="0" y="0" viewBox="0 0 2736.4 545" xml:space="preserve"><style>.st1{fill:#fff}</style><path id="XMLID_19_" d="M522.7 522.5h-500v-500h500v500zM22.5 355.2c0 41.4 33.6 75 75 75s75-33.6 75-75m.1.5V95m4.8 14.6L404.9 427m4.7 14.5v-408" fill="none" stroke="#d82f36" stroke-width="50" stroke-miterlimit="10"/><g id="XMLID_10_"><path id="XMLID_11_" class="st1" d="M874 147.9c13.9 0 26.9 2.6 39 7.8 12.1 5.2 22.7 12.3 31.8 21.4 9.1 9.1 16.2 19.7 21.4 31.8 5.2 12.1 7.8 25.1 7.8 39v152h-51.2v-152c0-6.7-1.3-13-3.8-19s-6-11.2-10.4-15.6-9.6-7.9-15.6-10.4-12.3-3.8-19-3.8c-6.7 0-13 1.3-19 3.8s-11.2 6-15.6 10.4-7.9 9.6-10.4 15.6-3.8 12.3-3.8 19v152H774v-152c0-13.9 2.6-26.9 7.8-39 5.2-12.1 12.3-22.7 21.4-31.8 9.1-9.1 19.7-16.2 31.8-21.4 12.1-5.2 25.1-7.8 39-7.8z"/><path id="XMLID_13_" class="st1" d="M1114 147.9c13.9 0 26.9 2.6 39 7.8 12.1 5.2 22.7 12.3 31.8 21.4 9.1 9.1 16.2 19.7 21.4 31.8 5.2 12.1 7.8 25.1 7.8 39v152h-51.2v-50.4h-97.6v50.4H1014v-152c0-13.9 2.6-26.9 7.8-39 5.2-12.1 12.3-22.7 21.4-31.8 9.1-9.1 19.7-16.2 31.8-21.4 12.1-5.2 25.1-7.8 39-7.8zm48.8 100c0-6.7-1.3-13-3.8-19s-6-11.2-10.4-15.6-9.6-7.9-15.6-10.4-12.3-3.8-19-3.8c-6.7 0-13 1.3-19 3.8s-11.2 6-15.6 10.4-7.9 9.6-10.4 15.6-3.8 12.3-3.8 19v50.4h97.6v-50.4z"/><path id="XMLID_21_" class="st1" d="M1470 147.9h51.2v173.2c0 10.9-2.1 21.2-6.4 30.8-4.3 9.6-10 17.9-17.2 25-7.2 7.1-15.6 12.7-25.2 16.8-9.6 4.1-19.9 6.2-30.8 6.2-10.4 0-20.2-1.9-29.4-5.6-9.2-3.7-17.4-8.9-24.6-15.6-6.9 6.7-15.1 11.9-24.4 15.6-9.3 3.7-19.2 5.6-29.6 5.6-10.9 0-21.2-2.1-30.8-6.2-9.6-4.1-18-9.7-25.2-16.8-7.2-7.1-12.9-15.4-17.2-25-4.3-9.6-6.4-19.9-6.4-30.8V147.9h51.2v176.4c1.1 6.9 4.3 12.8 9.6 17.6 5.3 4.8 11.6 7.2 18.8 7.2 7.5 0 13.9-2.5 19.2-7.4 5.3-4.9 8.4-11 9.2-18.2V147.9h51.2v172.8c.3 7.7 3.1 14.4 8.6 20s12.2 8.4 20.2 8.4c6.9 0 13-2.3 18.2-6.8 5.2-4.5 8.5-10.3 9.8-17.2V147.9z"/><path id="XMLID_23_" class="st1" d="M1772.8 222.7c0 10.1-1.8 19.5-5.4 28.2-3.6 8.7-8.5 16.3-14.6 23 6.1 6.7 11 14.3 14.6 23 3.6 8.7 5.4 17.9 5.4 27.8v75.2h-50.4v-75.2c0-7.2-2.5-13.3-7.6-18.4-5.1-5.1-11.2-7.7-18.4-8h-62.8v-49.2h65.2c6.7-.5 12.3-3.3 16.8-8.4 4.5-5.1 6.8-11.1 6.8-18 0-6.7-2.2-12.5-6.6-17.4-4.4-4.9-9.8-7.9-16.2-9h-87.2v203.6h-51.2v-252h137.6c10.1 0 19.7 2 28.8 6 9.1 4 16.9 9.4 23.6 16.2 6.7 6.8 11.9 14.7 15.8 23.6 3.9 8.9 5.8 18.6 5.8 29z"/><path id="XMLID_25_" class="st1" d="M1938.8 147.9c17.3 0 33.7 3.3 49 10 15.3 6.7 28.7 15.7 40 27s20.3 24.7 27 40c6.7 15.3 10 31.7 10 49s-3.3 33.7-10 49c-6.7 15.3-15.7 28.7-27 40.2-11.3 11.5-24.7 20.5-40 27s-31.7 9.8-49 9.8-33.7-3.3-49-9.8c-15.3-6.5-28.7-15.5-40.2-27-11.5-11.5-20.5-24.9-27-40.2-6.5-15.3-9.8-31.7-9.8-49s3.3-33.7 9.8-49c6.5-15.3 15.5-28.7 27-40s24.9-20.3 40.2-27c15.3-6.7 31.7-10 49-10zm.4 201.2c10.4 0 20.1-2 29.2-6 9.1-4 17-9.4 23.8-16.2 6.8-6.8 12.2-14.7 16.2-23.8 4-9.1 6-18.8 6-29.2 0-10.4-2-20.1-6-29.2-4-9.1-9.4-17-16.2-23.8-6.8-6.8-14.7-12.2-23.8-16.2-9.1-4-18.8-6-29.2-6-10.4 0-20.1 2-29.2 6-9.1 4-17 9.4-23.8 16.2-6.8 6.8-12.1 14.7-16 23.8-3.9 9.1-5.8 18.8-5.8 29.2 0 10.4 1.9 20.1 5.8 29.2 3.9 9.1 9.2 17 16 23.8 6.8 6.8 14.7 12.2 23.8 16.2 9.1 4 18.8 6 29.2 6z"/><path id="XMLID_28_" class="st1" d="M2231.2 349.1c16.5 0 31.1-4.7 43.8-14.2 12.7-9.5 21.7-21.4 27-35.8l47.6 16.8c-4.3 12.3-10.3 23.5-18 33.8-7.7 10.3-16.8 19.1-27.2 26.6-10.4 7.5-21.9 13.3-34.4 17.4-12.5 4.1-25.6 6.2-39.2 6.2-17.3 0-33.7-3.3-49-9.8-15.3-6.5-28.7-15.5-40.2-27-11.5-11.5-20.5-24.9-27-40.2-6.5-15.3-9.8-31.7-9.8-49s3.3-33.7 9.8-49c6.5-15.3 15.5-28.7 27-40s24.9-20.3 40.2-27c15.3-6.7 31.7-10 49-10 13.6 0 26.5 2 38.6 6 12.1 4 23.3 9.6 33.6 16.8 10.3 7.2 19.3 15.7 27 25.6 7.7 9.9 13.9 20.8 18.4 32.8l-47.2 17.2c-5.3-14.1-14.3-25.6-27-34.4-12.7-8.8-27-13.2-43-13.2-10.4 0-20.1 2-29.2 6-9.1 4-17 9.4-23.8 16.2-6.8 6.8-12.1 14.7-16 23.8-3.9 9.1-5.8 18.8-5.8 29.2 0 10.4 1.9 20.1 5.8 29.2 3.9 9.1 9.2 17 16 23.8 6.8 6.8 14.7 12.2 23.8 16.2 9.1 4 18.8 6 29.2 6z"/><path id="XMLID_30_" class="st1" d="M2571.8 220.5c-12.1 21.7-28.3 39.4-48.6 53 10.1 6.9 19.3 14.9 27.6 24s15.3 19 21 29.8c5.7 10.8 10.2 22.3 13.4 34.6 3.2 12.3 4.8 24.9 4.8 38h-50.8c0-13.3-2.5-25.9-7.4-37.8-4.9-11.9-11.7-22.3-20.2-31.4-8.5-9.1-18.6-16.4-30.2-22-11.6-5.6-23.9-8.8-37-9.6h-3.6v100.8h-51.2v-252h51.2v99.6h3.6c13.1-.8 25.4-3.9 37-9.4 11.6-5.5 21.7-12.7 30.2-21.6 8.5-8.9 15.3-19.3 20.2-31 4.9-11.7 7.4-24.3 7.4-37.6h50.8c0 26.7-6.1 50.9-18.2 72.6z"/><path id="XMLID_32_" class="st1" d="M2736.4 199.1h-27.6v149.6h27.6v51.2H2630v-51.2h27.6V199.1H2630v-51.2h106.4v51.2z"/></g></svg>