<?xml version="1.0" encoding="utf-8"?>
<!-- Generator: Adobe Illustrator 19.0.0, SVG Export Plug-In . SVG Version: 6.00 Build 0)  -->
<svg version="1.1" id="Warstwa_1" xmlns="http://www.w3.org/2000/svg" xmlns:xlink="http://www.w3.org/1999/xlink" x="0px" y="0px"
	 viewBox="0 0 617.3 67.8" style="enable-background:new 0 0 617.3 67.8;" xml:space="preserve">
<style type="text/css">
	.st0{fill:#E6E6E6;}
	.st1{fill:#F6DD1D;}
</style>
<g id="XMLID_4_">
	<path id="XMLID_2_" class="st0" d="M32.7,56.2H18.2V15.4v-1.9c0-8.8-9.1-6.7-15.3-3.8c-2.6,1.2-3.7,1-2.2-1.1
		C4.1,3.5,11.9,0,18.9,0l0,0H19h13.9c1.1,5.4,10.5,5.5,11.5,0h7.9v14h-8C44,8.5,32.8,8.3,32.8,14.7v41.5H32.7z"/>
	<path id="XMLID_1_" class="st1" d="M79,56.1L60.5,37.7c20.1-6.9,21.1-29.5-3.8-35.3v11.6c9.7,3.4,5.3,16.4-8.8,16.4H37.1v9.2h8.3
		L61.8,56L79,56.1L79,56.1z"/>
</g>
<g id="XMLID_19_">
	<path id="XMLID_20_" class="st0" d="M101.1,18c2.7,0,5.2,0.4,7.5,1.2c2.3,0.8,4.2,1.9,5.8,3.3s2.9,3.3,3.8,5.4s1.4,4.5,1.4,7.2
		c0,0.8,0,1.5-0.1,2.1c-0.1,0.5-0.2,0.9-0.4,1.3c-0.2,0.3-0.5,0.5-0.9,0.6c-0.4,0.1-0.8,0.2-1.4,0.2H93.1c0.4,3.1,1.4,5.4,3.1,6.8
		c1.7,1.4,3.9,2.1,6.5,2.1c1.4,0,2.7-0.2,3.7-0.5c1-0.3,1.9-0.7,2.8-1c0.8-0.4,1.5-0.7,2.2-1c0.7-0.3,1.4-0.5,2.1-0.5
		c1,0,1.7,0.3,2.2,1l3.6,4c-1.3,1.3-2.6,2.4-4.1,3.2c-1.5,0.8-3,1.5-4.5,1.9s-3.1,0.8-4.6,1s-3,0.3-4.4,0.3c-2.9,0-5.6-0.4-8.1-1.3
		c-2.5-0.9-4.7-2.1-6.6-3.8c-1.9-1.7-3.4-3.8-4.5-6.3c-1.1-2.5-1.6-5.4-1.6-8.7c0-2.5,0.5-4.9,1.4-7.1c0.9-2.2,2.3-4.2,4-5.9
		c1.8-1.7,3.9-3,6.4-4C95.2,18.5,98,18,101.1,18z M101.4,25.7c-2.3,0-4.2,0.6-5.5,1.8c-1.3,1.2-2.2,3-2.6,5.2h15.3
		c0-0.9-0.1-1.8-0.4-2.6c-0.3-0.8-0.7-1.6-1.2-2.3c-0.6-0.7-1.3-1.2-2.2-1.6C103.8,25.9,102.7,25.7,101.4,25.7z"/>
	<path id="XMLID_23_" class="st0" d="M126.6,55.9V18.6h7.6c0.8,0,1.4,0.2,1.9,0.5c0.5,0.3,0.9,0.8,1.1,1.4l0.7,2
		c0.7-0.6,1.4-1.2,2.1-1.8c0.7-0.5,1.5-1,2.4-1.4c0.9-0.4,1.8-0.7,2.8-0.9c1-0.2,2.1-0.3,3.3-0.3c2.5,0,4.5,0.6,6.2,1.7
		s2.9,2.7,3.7,4.7c0.7-1.2,1.5-2.1,2.5-3c1-0.8,2.1-1.5,3.2-2s2.4-0.9,3.6-1.1c1.3-0.2,2.6-0.4,3.8-0.4c2.3,0,4.4,0.3,6.3,1
		c1.8,0.6,3.3,1.6,4.6,2.8c1.2,1.2,2.2,2.7,2.8,4.5c0.6,1.8,1,3.8,1,6v23.7h-12.3V32.2c0-3.9-1.8-5.8-5.5-5.8c-1.7,0-3,0.5-4.1,1.5
		c-1.1,1-1.6,2.4-1.6,4.3v23.7h-12.3V32.2c0-2.1-0.5-3.6-1.4-4.5c-0.9-0.9-2.3-1.3-4.1-1.3c-1.1,0-2.2,0.2-3.1,0.7
		c-1,0.5-1.9,1.1-2.8,1.8v27H126.6z"/>
	<path id="XMLID_25_" class="st0" d="M213.1,18c3.1,0,6,0.4,8.5,1.3c2.6,0.9,4.8,2.2,6.6,3.8c1.8,1.7,3.3,3.7,4.3,6
		c1,2.4,1.5,5,1.5,8c0,3-0.5,5.7-1.5,8c-1,2.4-2.4,4.4-4.3,6.1c-1.8,1.7-4,3-6.6,3.9c-2.6,0.9-5.4,1.4-8.5,1.4c-3.1,0-6-0.5-8.6-1.4
		c-2.6-0.9-4.8-2.2-6.7-3.9c-1.9-1.7-3.3-3.7-4.3-6.1c-1-2.4-1.5-5.1-1.5-8c0-3,0.5-5.6,1.5-8c1-2.4,2.5-4.4,4.3-6
		c1.9-1.7,4.1-2.9,6.7-3.8C207.1,18.5,210,18,213.1,18z M213.1,48.2c2.8,0,4.9-0.9,6.2-2.7c1.3-1.8,2-4.6,2-8.3c0-3.7-0.7-6.4-2-8.2
		c-1.3-1.8-3.4-2.7-6.2-2.7c-2.9,0-5,0.9-6.4,2.7c-1.3,1.8-2,4.5-2,8.2c0,3.7,0.7,6.5,2,8.3C208.1,47.3,210.2,48.2,213.1,48.2z"/>
	<path id="XMLID_28_" class="st0" d="M240.8,55.9V18.6h7.6c0.8,0,1.4,0.2,1.9,0.5c0.5,0.3,0.9,0.8,1.1,1.4l0.7,2.2
		c0.8-0.7,1.6-1.3,2.5-1.9c0.8-0.6,1.7-1.1,2.7-1.5c1-0.4,2-0.7,3.1-0.9c1.1-0.2,2.3-0.3,3.7-0.3c2.2,0,4.2,0.4,6,1.1
		c1.7,0.7,3.2,1.7,4.4,3c1.2,1.3,2.1,2.8,2.7,4.5c0.6,1.7,0.9,3.6,0.9,5.7v23.7h-12.3V32.2c0-1.8-0.5-3.2-1.4-4.3
		c-0.9-1-2.3-1.5-4.1-1.5c-1.3,0-2.6,0.3-3.8,0.8c-1.2,0.5-2.3,1.2-3.4,2.1v26.6H240.8z"/>
	<path id="XMLID_30_" class="st0" d="M301.1,56.5c-2,0-3.7-0.3-5.2-0.8c-1.5-0.5-2.7-1.2-3.8-2.2c-1-0.9-1.8-2.1-2.3-3.4
		c-0.5-1.3-0.8-2.8-0.8-4.5V26.3h-3.5c-0.6,0-1.2-0.2-1.6-0.6c-0.4-0.4-0.7-0.9-0.7-1.6v-4.4l6.5-1.2l2.4-9.1
		c0.3-1.2,1.2-1.7,2.7-1.7h6.4v10.9h10v7.6h-10v18.5c0,0.9,0.2,1.6,0.7,2.1c0.5,0.6,1.1,0.8,2,0.8c0.4,0,0.8,0,1.1-0.1
		c0.3-0.1,0.6-0.2,0.8-0.3c0.2-0.1,0.4-0.2,0.6-0.3c0.2-0.1,0.4-0.1,0.7-0.1c0.4,0,0.7,0.1,0.9,0.2c0.2,0.2,0.5,0.4,0.7,0.7l3.7,5.3
		c-1.6,1.1-3.4,1.9-5.3,2.4S303.2,56.5,301.1,56.5z"/>
	<path id="XMLID_32_" class="st0" d="M335.2,65.6c-0.4,0.7-0.8,1.3-1.3,1.6c-0.5,0.3-1.4,0.5-2.5,0.5h-9.2l7.9-15.1l-16.4-34.1h10.9
		c1,0,1.7,0.2,2.2,0.6c0.5,0.4,0.9,0.8,1.1,1.4l6.7,16.1c0.6,1.5,1.1,3,1.5,4.5c0.3-0.8,0.6-1.5,0.9-2.3c0.3-0.7,0.6-1.5,0.9-2.3
		l6.1-16c0.2-0.6,0.6-1,1.2-1.4c0.6-0.4,1.3-0.6,2-0.6h9.9L335.2,65.6z"/>
	<path id="XMLID_34_" class="st1" d="M375.6,24.7h2.1c2,0,3.4-0.6,4.3-1.7l13-17.1c0.7-0.9,1.5-1.6,2.4-1.9c0.9-0.3,2-0.5,3.3-0.5
		h11.6l-17.1,21.2c-0.6,0.8-1.2,1.4-1.9,1.9c-0.7,0.5-1.3,0.9-2,1.3c1,0.3,1.9,0.8,2.8,1.4c0.8,0.6,1.6,1.4,2.3,2.4l17.4,24.3h-12
		c-0.8,0-1.4,0-2-0.1c-0.5-0.1-1-0.2-1.4-0.4c-0.4-0.2-0.7-0.4-1-0.7c-0.3-0.3-0.6-0.6-0.8-1l-13.1-18.3c-0.5-0.7-1.1-1.1-1.8-1.4
		c-0.7-0.3-1.7-0.4-3-0.4h-3.2v22.3h-13.4V3.5h13.4V24.7z"/>
	<path id="XMLID_36_" class="st1" d="M418.7,55.9V18.6h7.3c0.6,0,1.1,0,1.5,0.1c0.4,0.1,0.8,0.2,1,0.5c0.3,0.2,0.5,0.5,0.6,0.8
		c0.1,0.3,0.3,0.7,0.4,1.2l0.7,3.5c1.5-2.1,3.2-3.8,5.1-5c1.9-1.2,3.9-1.8,6.1-1.8c1.9,0,3.4,0.4,4.5,1.2l-1.6,8.2
		c-0.1,0.5-0.3,0.9-0.6,1.1c-0.3,0.2-0.7,0.3-1.3,0.3c-0.4,0-1-0.1-1.6-0.2c-0.6-0.1-1.4-0.2-2.3-0.2c-3.2,0-5.8,1.6-7.6,4.7v22.9
		H418.7z"/>
	<path id="XMLID_38_" class="st1" d="M469.7,18c3.1,0,6,0.4,8.5,1.3c2.6,0.9,4.8,2.2,6.6,3.8c1.8,1.7,3.3,3.7,4.3,6
		c1,2.4,1.5,5,1.5,8c0,3-0.5,5.7-1.5,8c-1,2.4-2.4,4.4-4.3,6.1s-4,3-6.6,3.9c-2.6,0.9-5.4,1.4-8.5,1.4c-3.1,0-6-0.5-8.6-1.4
		c-2.6-0.9-4.8-2.2-6.7-3.9s-3.3-3.7-4.3-6.1c-1-2.4-1.5-5.1-1.5-8c0-3,0.5-5.6,1.5-8c1-2.4,2.5-4.4,4.3-6c1.9-1.7,4.1-2.9,6.7-3.8
		S466.6,18,469.7,18z M469.7,48.2c2.8,0,4.9-0.9,6.2-2.7c1.3-1.8,2-4.6,2-8.3c0-3.7-0.7-6.4-2-8.2c-1.3-1.8-3.4-2.7-6.2-2.7
		c-2.9,0-5,0.9-6.4,2.7c-1.3,1.8-2,4.5-2,8.2c0,3.7,0.7,6.5,2,8.3C464.7,47.3,466.8,48.2,469.7,48.2z"/>
	<path id="XMLID_41_" class="st1" d="M522.5,26.8c-0.3,0.5-0.7,0.8-1,1c-0.4,0.2-0.8,0.3-1.4,0.3c-0.6,0-1.2-0.1-1.7-0.3
		c-0.6-0.2-1.2-0.5-1.9-0.7c-0.7-0.3-1.4-0.5-2.3-0.7c-0.8-0.2-1.8-0.3-2.9-0.3c-1.6,0-2.8,0.3-3.6,0.8s-1.2,1.3-1.2,2.3
		c0,0.7,0.3,1.3,0.8,1.7c0.5,0.5,1.3,0.9,2.2,1.2c0.9,0.3,1.9,0.7,3,1c1.1,0.3,2.3,0.7,3.5,1c1.2,0.4,2.3,0.8,3.5,1.3
		c1.1,0.5,2.2,1.2,3,1.9c0.9,0.8,1.6,1.7,2.2,2.8c0.5,1.1,0.8,2.4,0.8,3.9c0,1.8-0.4,3.6-1.1,5.1c-0.7,1.6-1.8,2.9-3.3,4
		c-1.5,1.1-3.3,2-5.4,2.6c-2.2,0.6-4.6,0.9-7.4,0.9c-1.4,0-2.8-0.1-4.2-0.4c-1.4-0.2-2.8-0.6-4.1-1c-1.3-0.4-2.5-0.9-3.6-1.5
		c-1.1-0.6-2.1-1.2-2.9-1.8l2.9-4.1c0.3-0.5,0.8-0.9,1.2-1.1c0.5-0.3,1.1-0.4,1.9-0.4c0.7,0,1.4,0.1,1.9,0.4
		c0.6,0.3,1.2,0.6,1.8,0.9c0.7,0.3,1.4,0.6,2.3,0.9s2,0.4,3.3,0.4c1,0,1.8-0.1,2.4-0.3c0.7-0.2,1.2-0.4,1.6-0.7
		c0.4-0.3,0.7-0.7,0.9-1s0.3-0.8,0.3-1.2c0-0.7-0.3-1.4-0.8-1.8c-0.6-0.5-1.3-0.9-2.2-1.2c-0.9-0.3-1.9-0.7-3.1-1
		c-1.1-0.3-2.3-0.6-3.5-1c-1.2-0.4-2.4-0.8-3.5-1.4c-1.1-0.5-2.2-1.2-3.1-2.1c-0.9-0.8-1.6-1.8-2.2-3c-0.6-1.2-0.8-2.7-0.8-4.4
		c0-1.6,0.3-3.1,1-4.5s1.7-2.7,3-3.8s3-1.9,5.1-2.6s4.4-1,7.1-1c1.5,0,2.9,0.1,4.3,0.4s2.7,0.6,3.9,1c1.2,0.4,2.3,0.9,3.3,1.5
		c1,0.6,1.9,1.2,2.7,1.9L522.5,26.8z"/>
	<path id="XMLID_43_" class="st1" d="M532.2,55.9V18.6h7.6c0.8,0,1.4,0.2,1.9,0.5c0.5,0.3,0.9,0.8,1.1,1.4l0.7,2.2
		c0.8-0.7,1.6-1.3,2.5-1.9c0.8-0.6,1.7-1.1,2.7-1.5c1-0.4,2-0.7,3.1-0.9c1.1-0.2,2.3-0.3,3.7-0.3c2.2,0,4.2,0.4,6,1.1
		c1.7,0.7,3.2,1.7,4.4,3c1.2,1.3,2.1,2.8,2.7,4.5c0.6,1.7,0.9,3.6,0.9,5.7v23.7h-12.3V32.2c0-1.8-0.5-3.2-1.4-4.3
		c-0.9-1-2.3-1.5-4.1-1.5c-1.3,0-2.6,0.3-3.8,0.8c-1.2,0.5-2.3,1.2-3.4,2.1v26.6H532.2z"/>
	<path id="XMLID_45_" class="st1" d="M596.4,18c3.1,0,6,0.4,8.5,1.3c2.6,0.9,4.8,2.2,6.6,3.8c1.8,1.7,3.3,3.7,4.3,6
		c1,2.4,1.5,5,1.5,8c0,3-0.5,5.7-1.5,8c-1,2.4-2.4,4.4-4.3,6.1s-4,3-6.6,3.9c-2.6,0.9-5.4,1.4-8.5,1.4c-3.1,0-6-0.5-8.6-1.4
		c-2.6-0.9-4.8-2.2-6.7-3.9s-3.3-3.7-4.3-6.1c-1-2.4-1.5-5.1-1.5-8c0-3,0.5-5.6,1.5-8c1-2.4,2.5-4.4,4.3-6c1.9-1.7,4.1-2.9,6.7-3.8
		S593.3,18,596.4,18z M596.4,48.2c2.8,0,4.9-0.9,6.2-2.7c1.3-1.8,2-4.6,2-8.3c0-3.7-0.7-6.4-2-8.2c-1.3-1.8-3.4-2.7-6.2-2.7
		c-2.9,0-5,0.9-6.4,2.7c-1.3,1.8-2,4.5-2,8.2c0,3.7,0.7,6.5,2,8.3C591.4,47.3,593.5,48.2,596.4,48.2z"/>
</g>
</svg>
